<svg width="27" height="27" viewBox="0 0 27 27" fill="none" xmlns="http://www.w3.org/2000/svg">
<circle cx="13.5" cy="13.5" r="13.5" fill="#6A38F3"/>
<g clip-path="url(#clip0_5002_3659)">
<path d="M19.9053 9.42725C20.2638 9.06883 20.4653 8.58268 20.4653 8.07574C20.4654 7.56879 20.2641 7.08259 19.9057 6.72408C19.5472 6.36557 19.0611 6.16413 18.5541 6.16406C18.0472 6.164 17.561 6.36532 17.2025 6.72374L8.15279 15.7755C7.99535 15.9324 7.87892 16.1257 7.81375 16.3383L6.918 19.2893C6.90048 19.3479 6.89916 19.4102 6.91417 19.4695C6.92919 19.5289 6.95999 19.583 7.0033 19.6263C7.04662 19.6695 7.10083 19.7002 7.16019 19.7152C7.21954 19.7301 7.28183 19.7287 7.34045 19.711L10.2921 18.816C10.5045 18.7514 10.6978 18.6357 10.8549 18.479L19.9053 9.42725Z" stroke="white" stroke-width="1.35616" stroke-linecap="round" stroke-linejoin="round"/>
</g>
<defs>
<clipPath id="clip0_5002_3659">
<rect width="16.274" height="16.274" fill="white" transform="translate(5.54785 4.80811)"/>
</clipPath>
</defs>
</svg>
